<svg width="269" height="207" viewBox="0 0 269 207" fill="none" xmlns="http://www.w3.org/2000/svg">
<path d="M234.176 201.934C242.5 201.934 249.249 200.18 249.249 198.016C249.249 195.853 242.5 194.098 234.176 194.098C225.852 194.098 219.103 195.853 219.103 198.016C219.103 200.18 225.852 201.934 234.176 201.934Z" fill="#D1D3D4"/>
<path d="M38.5043 206.563C59.2286 206.563 76.0289 204.131 76.0289 201.132C76.0289 198.133 59.2286 195.702 38.5043 195.702C17.7801 195.702 0.979767 198.133 0.979767 201.132C0.979767 204.131 17.7801 206.563 38.5043 206.563Z" fill="#D1D3D4"/>
<path d="M138.106 189.703C170.793 189.703 197.291 187.404 197.291 184.568C197.291 181.731 170.793 179.432 138.106 179.432C105.419 179.432 78.9216 181.731 78.9216 184.568C78.9216 187.404 105.419 189.703 138.106 189.703Z" fill="#D1D3D4"/>
<path d="M168.861 151.164H107.342V176.833H168.861V151.164Z" fill="white"/>
<path d="M168.861 177.3H107.342C107.219 177.298 107.101 177.248 107.014 177.161C106.927 177.074 106.877 176.956 106.875 176.833V151.164C106.877 151.041 106.927 150.924 107.014 150.837C107.101 150.75 107.219 150.7 107.342 150.697H168.861C168.984 150.7 169.101 150.75 169.188 150.837C169.275 150.924 169.325 151.041 169.328 151.164V176.833C169.325 176.956 169.275 177.074 169.188 177.161C169.101 177.248 168.984 177.298 168.861 177.3ZM107.849 176.366H168.434V151.631H107.849V176.366Z" fill="#231F20"/>
<path d="M186.055 176.407H90.1577C87.8257 176.407 85.9353 178.297 85.9353 180.629C85.9353 182.961 87.8257 184.852 90.1577 184.852H186.055C188.387 184.852 190.277 182.961 190.277 180.629C190.277 178.297 188.387 176.407 186.055 176.407Z" fill="white"/>
<path d="M186.004 185.319H90.1577C89.5242 185.348 88.8913 185.249 88.2973 185.027C87.7033 184.805 87.1605 184.464 86.7018 184.027C86.243 183.589 85.8779 183.062 85.6284 182.479C85.3789 181.896 85.2503 181.269 85.2503 180.634C85.2503 180 85.3789 179.373 85.6284 178.79C85.8779 178.207 86.243 177.68 86.7018 177.242C87.1605 176.805 87.7033 176.464 88.2973 176.242C88.8913 176.02 89.5242 175.921 90.1577 175.95H186.004C186.638 175.921 187.27 176.02 187.865 176.242C188.459 176.464 189.001 176.805 189.46 177.242C189.919 177.68 190.284 178.207 190.533 178.79C190.783 179.373 190.912 180 190.912 180.634C190.912 181.269 190.783 181.896 190.533 182.479C190.284 183.062 189.919 183.589 189.46 184.027C189.001 184.464 188.459 184.805 187.865 185.027C187.27 185.249 186.638 185.348 186.004 185.319ZM90.1171 176.874C89.1211 176.874 88.1658 177.27 87.4615 177.974C86.7572 178.678 86.3616 179.633 86.3616 180.629C86.3616 181.625 86.7572 182.581 87.4615 183.285C88.1658 183.989 89.1211 184.385 90.1171 184.385H186.004C187 184.385 187.955 183.989 188.66 183.285C189.364 182.581 189.76 181.625 189.76 180.629C189.76 179.633 189.364 178.678 188.66 177.974C187.955 177.27 187 176.874 186.004 176.874H90.1171Z" fill="#231F20"/>
<path d="M168.861 151.164V153.955C150.073 155.863 120.141 163.435 107.342 166.825V151.164H168.861Z" fill="#231F20"/>
<path d="M107.342 167.272C107.243 167.273 107.146 167.241 107.068 167.181C107.015 167.138 106.972 167.084 106.942 167.022C106.912 166.961 106.896 166.894 106.895 166.825V151.164C106.895 151.046 106.942 150.932 107.026 150.848C107.11 150.764 107.223 150.717 107.342 150.717H168.861C168.979 150.717 169.093 150.764 169.177 150.848C169.26 150.932 169.307 151.046 169.307 151.164V153.955C169.308 154.065 169.268 154.172 169.195 154.254C169.122 154.337 169.021 154.389 168.912 154.402C150.022 156.32 119.643 164.024 107.453 167.252L107.342 167.272ZM107.788 151.611V166.237C120.252 162.948 149.728 155.518 168.414 153.559V151.611H107.788Z" fill="#231F20"/>
<path d="M258.353 0.456757H17.8491C12.2602 0.456757 7.72952 4.98743 7.72952 10.5763V141.095C7.72952 146.684 12.2602 151.215 17.8491 151.215H258.353C263.942 151.215 268.473 146.684 268.473 141.095V10.5763C268.473 4.98743 263.942 0.456757 258.353 0.456757Z" fill="white"/>
<path d="M258.353 151.682H17.8491C15.0422 151.679 12.3511 150.563 10.3663 148.578C8.38154 146.593 7.26532 143.902 7.26263 141.095V10.5865C7.26532 7.77957 8.38154 5.08843 10.3663 3.10367C12.3511 1.11891 15.0422 0.00268729 17.8491 0H258.404C261.202 0.0160799 263.88 1.13821 265.854 3.12152C267.828 5.10484 268.937 7.78834 268.94 10.5865V141.095C268.937 143.902 267.821 146.593 265.836 148.578C263.851 150.563 261.16 151.679 258.353 151.682ZM17.8491 0.94395C15.2881 0.94664 12.8329 1.96587 11.023 3.77771C9.21308 5.58954 8.19643 8.04577 8.19643 10.6068V141.095C8.19643 143.656 9.21308 146.112 11.023 147.924C12.8329 149.736 15.2881 150.755 17.8491 150.758H258.404C260.965 150.755 263.42 149.736 265.23 147.924C267.04 146.112 268.057 143.656 268.057 141.095V10.5865C268.054 9.3158 267.801 8.05815 267.311 6.88549C266.822 5.71284 266.106 4.64821 265.205 3.75256C264.304 2.8569 263.235 2.14781 262.059 1.66587C260.883 1.18393 259.624 0.938609 258.353 0.94395H17.8491Z" fill="#231F20"/>
<path d="M265.286 20.4929H8.37913C8.25611 20.4903 8.13886 20.4402 8.05185 20.3532C7.96485 20.2662 7.91482 20.149 7.91223 20.026C7.91489 19.9039 7.96524 19.7877 8.05252 19.7023C8.13979 19.617 8.25704 19.5692 8.37913 19.5692H265.286C265.407 19.5692 265.523 19.6173 265.609 19.703C265.694 19.7886 265.743 19.9048 265.743 20.026C265.743 20.148 265.695 20.2653 265.609 20.3526C265.524 20.4398 265.408 20.4902 265.286 20.4929Z" fill="#231F20"/>
<path d="M138.654 135.442H137.528C137.142 135.239 136.766 135.015 136.371 134.843C118.953 126.926 105.586 115.395 96.7856 99.8861C92.5037 92.3413 89.5316 84.1252 87.9957 75.5871C87.116 70.8051 86.7553 65.9421 86.9198 61.0827C86.9198 60.3214 87.2345 59.9662 88.0972 59.8241C89.3152 59.6211 90.5231 59.3267 91.7106 59.0121C97.6382 57.3881 102.399 54.404 105.535 49.5625C107.876 45.988 108.984 41.7466 108.692 37.4839C108.641 36.7531 108.864 36.469 109.707 36.2964C115.228 35.4032 120.719 34.378 126.251 33.5254C132.621 32.422 139.117 32.2477 145.536 33.0078C152.57 33.9619 159.553 35.2408 166.557 36.337C167.308 36.4588 167.419 36.7633 167.44 37.352C167.405 38.923 167.494 40.4942 167.704 42.0514C168.157 44.6942 169.13 47.2209 170.565 49.4857C172.001 51.7505 173.871 53.7084 176.067 55.2464C179.532 57.613 183.482 59.1737 187.628 59.8139C188.958 60.0575 189.242 60.5955 189.272 61.6815C189.476 69.3008 188.416 76.9011 186.136 84.174C180.046 103.987 167.419 119.608 147.86 130.732C144.886 132.427 141.73 133.909 138.654 135.442Z" fill="black"/>
<path d="M159.289 70.9586H116.913C112.63 70.9586 109.158 74.4305 109.158 78.7132V100.12C109.158 104.402 112.63 107.874 116.913 107.874H159.289C163.572 107.874 167.044 104.402 167.044 100.12V78.7132C167.044 74.4305 163.572 70.9586 159.289 70.9586Z" fill="white"/>
<path d="M152.57 77.5562H123.632C123.094 77.5562 122.578 77.3423 122.197 76.9616C121.816 76.5809 121.602 76.0645 121.602 75.5262V64.0465C121.709 59.7416 123.494 55.6489 126.577 52.6419C129.659 49.635 133.795 47.9519 138.101 47.9519C142.407 47.9519 146.543 49.635 149.626 52.6419C152.708 55.6489 154.493 59.7416 154.6 64.0465V75.5262C154.6 76.0645 154.386 76.5809 154.005 76.9616C153.625 77.3423 153.108 77.5562 152.57 77.5562ZM125.662 73.4962H150.54V64.0465C150.448 60.809 149.096 57.7352 146.774 55.4779C144.451 53.2207 141.34 51.958 138.101 51.958C134.862 51.958 131.751 53.2207 129.429 55.4779C127.106 57.7352 125.755 60.809 125.662 64.0465V73.4962Z" fill="white"/>
<path d="M138.106 89.2185C141.167 89.2185 143.648 86.7373 143.648 83.6766C143.648 80.6159 141.167 78.1347 138.106 78.1347C135.046 78.1347 132.564 80.6159 132.564 83.6766C132.564 86.7373 135.046 89.2185 138.106 89.2185Z" fill="black"/>
<path d="M139.649 84.7424H136.553V97.6532H139.649V84.7424Z" fill="black"/>
<path d="M21.229 14.5856C23.1069 14.5856 24.6293 13.0632 24.6293 11.1853C24.6293 9.30739 23.1069 7.78505 21.229 7.78505C19.3511 7.78505 17.8288 9.30739 17.8288 11.1853C17.8288 13.0632 19.3511 14.5856 21.229 14.5856Z" fill="black"/>
<path d="M33.1147 14.5856C34.9926 14.5856 36.5149 13.0632 36.5149 11.1853C36.5149 9.30739 34.9926 7.78505 33.1147 7.78505C31.2368 7.78505 29.7144 9.30739 29.7144 11.1853C29.7144 13.0632 31.2368 14.5856 33.1147 14.5856Z" fill="#D1D3D4"/>
<path d="M45.0003 14.5856C46.8783 14.5856 48.4006 13.0632 48.4006 11.1853C48.4006 9.30739 46.8783 7.78505 45.0003 7.78505C43.1224 7.78505 41.6001 9.30739 41.6001 11.1853C41.6001 13.0632 43.1224 14.5856 45.0003 14.5856Z" fill="#D1D3D4"/>
<path d="M182.056 132.671C181.963 132.676 181.871 132.652 181.792 132.604C181.713 132.555 181.651 132.484 181.613 132.399C181.576 132.314 181.565 132.22 181.583 132.129C181.6 132.038 181.645 131.954 181.711 131.889L246.904 63.133C246.992 63.0456 247.11 62.9965 247.234 62.9965C247.358 62.9965 247.476 63.0456 247.564 63.133C247.649 63.2218 247.696 63.34 247.696 63.4629C247.696 63.5858 247.649 63.704 247.564 63.7927L182.421 132.549C182.372 132.593 182.314 132.627 182.251 132.648C182.188 132.669 182.122 132.677 182.056 132.671Z" fill="#D1D3D4"/>
<path d="M66.2341 55.551C66.1412 55.5509 66.0505 55.5231 65.9735 55.4711C65.8965 55.4192 65.8367 55.3454 65.8019 55.2593C65.767 55.1733 65.7586 55.0787 65.7777 54.9878C65.7969 54.8969 65.8427 54.8138 65.9093 54.7491L93.6391 27.5369C93.6818 27.4924 93.733 27.457 93.7897 27.4328C93.8464 27.4086 93.9074 27.3961 93.969 27.3961C94.0306 27.3961 94.0917 27.4086 94.1483 27.4328C94.205 27.457 94.2562 27.4924 94.2989 27.5369C94.3863 27.6245 94.4354 27.7431 94.4354 27.8668C94.4354 27.9905 94.3863 28.1092 94.2989 28.1967L66.5488 55.4089C66.5091 55.4532 66.4607 55.4887 66.4065 55.5132C66.3523 55.5377 66.2936 55.5505 66.2341 55.551Z" fill="#D1D3D4"/>
<path d="M204.974 72.4405C204.914 72.4416 204.854 72.4305 204.799 72.4078C204.743 72.3851 204.692 72.3514 204.65 72.3086C204.562 72.2211 204.513 72.1024 204.513 71.9787C204.513 71.855 204.562 71.7364 204.65 71.6488L237.211 37.6768C237.297 37.5904 237.413 37.5409 237.534 37.5388C237.656 37.5366 237.774 37.5821 237.862 37.6654C237.951 37.7488 238.004 37.8634 238.009 37.985C238.014 38.1066 237.972 38.2254 237.891 38.3162L205.289 72.2985C205.206 72.3834 205.093 72.4341 204.974 72.4405Z" fill="#D1D3D4"/>
<path d="M10.7847 131.676L11.5459 136.751C11.5459 136.751 14.5909 138.111 14.7533 138.964C14.9157 139.816 15.7683 142.171 15.5653 142.841C15.1289 143.968 13.6673 143.562 13.6673 143.562C13.8352 144.224 13.8799 144.913 13.7992 145.592C13.5861 146.048 6.69421 146.607 5.67921 145.186C4.66421 143.765 2.38046 129.057 2.38046 129.057" fill="white"/>
<path d="M9.74939 146.556C8.03404 146.556 5.91269 146.363 5.26309 145.47C4.19734 144.018 2.11659 130.651 1.88314 129.138C1.87305 129.078 1.87508 129.017 1.8891 128.958C1.90313 128.898 1.92887 128.842 1.96481 128.793C2.00075 128.744 2.04616 128.703 2.09837 128.671C2.15059 128.64 2.20855 128.619 2.26885 128.611C2.32892 128.601 2.3904 128.603 2.44967 128.617C2.50895 128.631 2.56482 128.656 2.614 128.692C2.66318 128.728 2.70466 128.774 2.73603 128.826C2.7674 128.878 2.78801 128.936 2.79664 128.996C3.66954 134.65 5.31384 143.968 6.01419 144.922C6.71454 145.876 12.3681 145.653 13.3932 145.307C13.4004 144.771 13.3425 144.236 13.2207 143.714C13.2035 143.636 13.2067 143.555 13.2298 143.478C13.2529 143.402 13.2952 143.333 13.3526 143.277C13.4116 143.223 13.4835 143.184 13.5616 143.164C13.6397 143.145 13.7214 143.145 13.7992 143.166C13.7992 143.166 14.8142 143.44 15.1289 142.719C15.0715 141.796 14.88 140.887 14.5605 140.019C14.4488 139.664 14.3575 139.349 14.3067 139.126C13.4751 138.282 12.4662 137.634 11.3531 137.228C11.2818 137.196 11.2195 137.147 11.1717 137.085C11.1239 137.023 11.0921 136.95 11.079 136.873L10.3279 131.798C10.3104 131.677 10.3418 131.554 10.4151 131.455C10.4884 131.357 10.5976 131.293 10.7187 131.275C10.8399 131.258 10.963 131.289 11.061 131.362C11.159 131.435 11.2239 131.545 11.2414 131.666L11.9621 136.538C12.9771 137.035 15.0071 138.06 15.2101 138.964C15.2101 139.167 15.3522 139.461 15.4435 139.806C15.9104 141.359 16.2251 142.506 15.9916 143.105C15.8547 143.449 15.6117 143.741 15.2978 143.938C14.9839 144.135 14.6155 144.227 14.2458 144.201C14.3752 144.742 14.3752 145.305 14.2458 145.845C14.1646 146.038 14.0327 146.302 12.1549 146.495C12.023 146.454 10.9978 146.556 9.74939 146.556Z" fill="#231F20"/>
<path d="M13.6673 143.612C13.1647 142.725 12.7889 141.772 12.5508 140.781L13.6673 143.612Z" fill="white"/>
<path d="M13.6673 144.059C13.5902 144.059 13.5145 144.039 13.447 144.002C13.3796 143.965 13.3227 143.911 13.2816 143.846C12.7492 142.915 12.3495 141.914 12.094 140.872C12.0659 140.752 12.085 140.626 12.1474 140.52C12.2098 140.415 12.3107 140.337 12.429 140.303C12.5488 140.273 12.6759 140.291 12.7825 140.353C12.889 140.416 12.9663 140.519 12.9974 140.638C13.215 141.582 13.5563 142.494 14.0124 143.348C14.0592 143.418 14.0857 143.5 14.0892 143.584C14.0926 143.668 14.0727 143.751 14.0318 143.825C13.9909 143.898 13.9304 143.959 13.8571 144C13.7839 144.042 13.7006 144.062 13.6165 144.059H13.6673Z" fill="#231F20"/>
<path d="M68.0408 131.676L67.2897 136.751C67.2897 136.751 64.2447 138.111 64.0722 138.964C63.8996 139.816 63.0572 142.171 63.2602 142.841C63.6966 143.968 65.1582 143.562 65.1582 143.562C64.9903 144.224 64.9456 144.913 65.0263 145.592C65.2394 146.048 72.1313 146.607 73.1463 145.186C74.1613 143.765 76.445 129.057 76.445 129.057" fill="white"/>
<path d="M69.0761 146.556C67.8277 146.556 66.8025 146.454 66.701 146.444C64.8233 146.251 64.671 145.987 64.6101 145.795C64.4808 145.254 64.4808 144.691 64.6101 144.15C64.2404 144.177 63.872 144.084 63.5582 143.887C63.2443 143.69 63.0013 143.398 62.8643 143.054C62.6309 142.455 62.9455 141.308 63.4124 139.755C63.5139 139.41 63.5951 139.116 63.6459 138.913C63.859 138.01 65.8383 136.984 66.8939 136.487L67.6145 131.615C67.632 131.494 67.6969 131.385 67.795 131.311C67.893 131.238 68.0161 131.207 68.1373 131.224C68.2584 131.242 68.3676 131.307 68.4409 131.405C68.5142 131.503 68.5455 131.626 68.528 131.747L67.7769 136.822C67.7657 136.9 67.7345 136.973 67.6865 137.036C67.6385 137.098 67.5753 137.147 67.5029 137.177C66.3898 137.583 65.3808 138.231 64.5492 139.075C64.4985 139.299 64.4071 139.613 64.2955 139.969C63.9759 140.836 63.7844 141.746 63.7271 142.668C64.0011 143.389 65.0161 143.125 65.0669 143.115C65.1438 143.093 65.225 143.092 65.3026 143.111C65.3801 143.131 65.4512 143.17 65.5087 143.226C65.5662 143.281 65.6082 143.351 65.6304 143.427C65.6526 143.504 65.6543 143.585 65.6353 143.663C65.5135 144.185 65.4556 144.72 65.4627 145.257C66.4777 145.602 72.1008 145.896 72.8418 144.871C73.5827 143.846 75.1864 134.599 76.0593 128.946C76.068 128.885 76.0886 128.827 76.1199 128.775C76.1513 128.723 76.1928 128.678 76.242 128.642C76.2912 128.606 76.347 128.58 76.4063 128.566C76.4656 128.552 76.5271 128.55 76.5871 128.56C76.6474 128.569 76.7054 128.589 76.7576 128.621C76.8098 128.652 76.8552 128.693 76.8912 128.743C76.9271 128.792 76.9528 128.848 76.9669 128.907C76.9809 128.966 76.9829 129.028 76.9728 129.088C76.7394 130.6 74.6586 143.968 73.5929 145.419C72.9128 146.363 70.7915 146.556 69.0761 146.556Z" fill="#231F20"/>
<path d="M66.2341 143.612C66.7374 142.724 67.1164 141.772 67.3608 140.781L66.2341 143.612Z" fill="white"/>
<path d="M66.2341 144.059C66.1478 144.059 66.0632 144.035 65.9905 143.988C65.886 143.923 65.8113 143.819 65.7828 143.7C65.7543 143.58 65.7742 143.454 65.8383 143.348C66.3232 142.501 66.6855 141.588 66.9142 140.638C66.9453 140.521 67.0211 140.42 67.1253 140.358C67.2296 140.295 67.3541 140.276 67.4724 140.303C67.5324 140.318 67.589 140.344 67.6386 140.38C67.6882 140.417 67.73 140.463 67.7612 140.516C67.7925 140.569 67.8128 140.628 67.8207 140.689C67.8286 140.75 67.8241 140.813 67.8074 140.872C67.5564 141.91 67.16 142.908 66.63 143.836C66.5878 143.903 66.5295 143.958 66.4604 143.997C66.3912 144.036 66.3135 144.058 66.2341 144.059Z" fill="#231F20"/>
<path d="M74.3541 86.8535C74.3541 86.8535 70.5986 73.3236 66.1834 68.4415C61.7681 63.5593 49.7099 58.3828 29.7246 60.9711C29.7246 60.9711 19.3513 63.7217 13.0989 69.6696C6.84647 75.6175 4.60332 86.204 4.60332 86.204C4.60332 86.204 -2.93813 113.609 1.28427 133.554L13.647 134.305C13.647 134.305 11.7591 110.889 18.1028 92.2939C19.2599 115.639 21.0666 152.991 22.3252 189.541L36.9311 189.237L41.0926 142.293L42.6252 188.719H57.5762C57.5762 188.719 61.7681 130.275 59.728 89.6956C67.2694 108.585 65.1785 134.356 65.1785 134.356L77.5412 133.604C81.3982 115.405 75.4402 90.9339 74.3541 86.8535Z" fill="#231F20"/>
<path d="M33.0335 44.8325C32.4448 41.1684 26.3446 40.2651 26.6491 44.589C26.6931 46.0918 27.2685 47.5304 28.2731 48.649C28.7813 49.1892 29.4374 49.5677 30.1594 49.7374C30.8815 49.9071 31.6375 49.8604 32.3331 49.6031" fill="white"/>
<path d="M31.0948 50.3947C30.4973 50.386 29.9074 50.2596 29.3588 50.0228C28.8102 49.7859 28.3137 49.4432 27.8976 49.0143C26.8031 47.7943 26.1741 46.2272 26.1213 44.5889C26.0476 44.1892 26.0584 43.7784 26.153 43.383C26.2476 42.9877 26.4239 42.6165 26.6705 42.2934C26.9172 41.9703 27.2287 41.7023 27.5852 41.5068C27.9416 41.3113 28.335 41.1926 28.74 41.1582C29.8389 41.0463 30.9401 41.3484 31.828 42.0054C32.7159 42.6624 33.3268 43.6271 33.541 44.7107C33.5606 44.7806 33.5653 44.8538 33.5548 44.9256C33.5443 44.9974 33.5188 45.0662 33.48 45.1275C33.4412 45.1889 33.3899 45.2413 33.3295 45.2816C33.2691 45.3218 33.2009 45.3488 33.1293 45.361C33.0578 45.3732 32.9845 45.3701 32.9142 45.3521C32.8439 45.3341 32.7782 45.3016 32.7213 45.2565C32.6644 45.2115 32.6176 45.155 32.5839 45.0907C32.5503 45.0264 32.5305 44.9557 32.526 44.8833C32.3488 44.067 31.8798 43.3433 31.2071 42.8481C30.5344 42.3529 29.7041 42.1202 28.872 42.1935C28.1818 42.2747 27.0551 42.6807 27.1769 44.5077C27.2154 45.9044 27.7476 47.2422 28.6791 48.2835C29.1146 48.7538 29.6794 49.0847 30.3025 49.2346C30.9256 49.3845 31.5792 49.3467 32.1809 49.126C32.3076 49.0709 32.4508 49.0677 32.5799 49.117C32.7089 49.1664 32.8134 49.2643 32.8711 49.3899C32.9266 49.5181 32.9301 49.6628 32.8809 49.7935C32.8316 49.9242 32.7335 50.0306 32.6072 50.0902C32.1298 50.2962 31.6147 50.3999 31.0948 50.3947Z" fill="#231F20"/>
<path d="M48.2179 44.8325C48.7964 41.1684 54.8966 40.2651 54.5921 44.589C54.5482 46.0918 53.9727 47.5304 52.9681 48.649C52.4599 49.1892 51.8038 49.5677 51.0818 49.7374C50.3597 49.9071 49.6037 49.8604 48.9081 49.6031" fill="white"/>
<path d="M50.1464 50.3948C49.6368 50.3957 49.1324 50.292 48.6645 50.0903C48.5299 50.0324 48.4238 49.9234 48.3695 49.7873C48.3153 49.6512 48.3173 49.4991 48.3752 49.3645C48.4331 49.2299 48.5421 49.1238 48.6782 49.0696C48.8143 49.0153 48.9663 49.0174 49.1009 49.0753C49.7011 49.2951 50.3529 49.3325 50.9743 49.1826C51.5956 49.0326 52.1587 48.7022 52.5925 48.2328C53.4809 47.2203 53.9966 45.9347 54.0541 44.589C54.1759 42.762 53.0391 42.356 52.3591 42.2748C51.527 42.2014 50.6967 42.4341 50.0239 42.9293C49.3512 43.4245 48.8823 44.1482 48.7051 44.9645C48.7005 45.0369 48.6808 45.1076 48.6471 45.1719C48.6135 45.2362 48.5667 45.2927 48.5098 45.3377C48.4529 45.3828 48.3871 45.4154 48.3168 45.4334C48.2465 45.4514 48.1732 45.4544 48.1017 45.4422C48.0302 45.43 47.962 45.403 47.9016 45.3628C47.8412 45.3225 47.7899 45.2701 47.7511 45.2088C47.7123 45.1474 47.6868 45.0786 47.6763 45.0068C47.6658 44.935 47.6705 44.8618 47.6901 44.7919C47.9022 43.7072 48.5125 42.7411 49.4009 42.0837C50.2894 41.4263 51.3917 41.1251 52.491 41.2394C52.8889 41.2737 53.2754 41.3893 53.6267 41.5792C53.9779 41.7691 54.2864 42.0292 54.5329 42.3433C54.7794 42.6574 54.9587 43.0188 55.0597 43.4051C55.1607 43.7914 55.1812 44.1944 55.1199 44.589C55.062 46.214 54.433 47.7666 53.3436 48.9738C52.9309 49.41 52.4359 49.7602 51.8871 50.0041C51.3384 50.248 50.7467 50.3808 50.1464 50.3948Z" fill="#231F20"/>
<path d="M47.6799 63.1838L43.4068 88.7618L41.8437 98.0794L39.8543 88.6602L34.4646 63.1838H47.6799Z" fill="black"/>
<path d="M42.1076 71.9939L43.4068 88.7516L41.8741 98.0794L39.8441 88.6602L40.5952 72.2578L39.0017 69.5173L40.8591 66.6449L43.4372 69.3042L42.1076 71.9939Z" fill="white"/>
<path d="M47.6799 63.1837C47.0475 64.3264 46.1074 65.2688 44.9663 65.9039C43.8252 66.539 42.5289 66.8415 41.2245 66.7768C39.883 66.815 38.5546 66.5039 37.3696 65.874C36.1845 65.2441 35.1835 64.317 34.4646 63.1837L34.6676 60.6158L35.1345 54.6476L35.5811 49.0752H46.5634L46.9288 53.6326L47.0405 55.1145L47.6799 63.1837Z" fill="white"/>
<path d="M41.2245 67.2945C39.7873 67.3363 38.3641 67.0014 37.0963 66.323C35.8285 65.6446 34.7603 64.6463 33.9977 63.4274C33.947 63.3418 33.9256 63.242 33.9368 63.1432L35.0635 49.0347C35.0713 48.9027 35.1292 48.7787 35.2254 48.6882C35.3217 48.5976 35.449 48.5472 35.5811 48.5475H46.5634C46.6949 48.5496 46.8208 48.6007 46.9166 48.6908C47.0123 48.781 47.071 48.9036 47.0811 49.0347L48.2077 63.1432C48.2268 63.2267 48.2268 63.3134 48.2077 63.3969C47.5347 64.6432 46.5203 65.6718 45.2834 66.3621C44.0466 67.0524 42.6386 67.3759 41.2245 67.2945ZM34.9924 63.0518C35.6764 64.068 36.6067 64.8942 37.6966 65.4533C38.7864 66.0125 40.0002 66.2862 41.2245 66.2491C42.4082 66.3097 43.586 66.0458 44.6307 65.4859C45.6753 64.926 46.5472 64.0913 47.1521 63.0721L46.0762 49.5929H36.0683L34.9924 63.0518Z" fill="#231F20"/>
<path d="M47.7814 53.2063C47.6616 53.8847 47.4099 54.533 47.0405 55.1145C46.1157 56.4494 44.8741 57.5341 43.4271 58.2712C41.0621 59.5805 37.5299 61.0523 34.6676 60.6158L35.1345 54.6476C37.2384 54.8968 39.3643 54.8968 41.4681 54.6476C43.3293 54.5883 45.1706 54.246 46.9288 53.6326C47.213 53.5007 47.5074 53.3687 47.7814 53.2063Z" fill="#231F20"/>
<path d="M35.7841 61.1944C35.3935 61.198 35.0032 61.1708 34.6169 61.1131C34.4903 61.0954 34.3754 61.0297 34.2961 60.9295C34.2167 60.8293 34.1789 60.7025 34.1906 60.5752L34.6575 54.607C34.6761 54.469 34.7447 54.3425 34.8503 54.2517C34.9607 54.1688 35.0991 54.1323 35.236 54.1502C37.2995 54.3927 39.3843 54.3927 41.4478 54.1502C43.2586 54.0837 45.0487 53.7415 46.7563 53.1352C47.0303 53.0134 47.3044 52.8815 47.5581 52.7394C47.6407 52.6892 47.7355 52.6627 47.8322 52.6627C47.9288 52.6627 48.0236 52.6892 48.1062 52.7394C48.1823 52.7958 48.2415 52.872 48.2773 52.9597C48.3131 53.0474 48.3241 53.1432 48.3092 53.2367C48.171 53.9592 47.8954 54.6483 47.4972 55.2667C46.5366 56.6809 45.2344 57.8296 43.7113 58.6061C41.8741 59.6921 38.7073 61.1944 35.7841 61.1944ZM35.236 60.1794C38.1998 60.4128 41.7726 58.6365 43.2139 57.8448C44.5979 57.1382 45.7787 56.0901 46.6446 54.7998C46.779 54.5819 46.8977 54.3546 46.9999 54.1198C45.2387 54.7219 43.3991 55.0639 41.5392 55.1348C39.5756 55.3431 37.5955 55.3431 35.6319 55.1348L35.236 60.1794Z" fill="#231F20"/>
<path d="M41.3869 56.0483H40.3719C38.1473 56.0376 36.0175 55.1463 34.4483 53.5695C32.8791 51.9927 31.9981 49.8586 31.9982 47.634V34.3172L41.6813 36.7227L49.8013 34.3172V47.634C49.8013 48.7389 49.5836 49.8331 49.1608 50.854C48.7379 51.8749 48.1181 52.8025 47.3368 53.5838C46.5554 54.3651 45.6278 54.9849 44.607 55.4078C43.5861 55.8307 42.4919 56.0483 41.3869 56.0483Z" fill="white"/>
<path d="M41.3869 56.5761H40.3719C38.0082 56.5627 35.7457 55.615 34.078 53.9398C32.4104 52.2645 31.473 49.9977 31.4704 47.634V34.3171C31.4718 34.2372 31.4907 34.1585 31.5258 34.0866C31.5608 34.0147 31.6112 33.9514 31.6734 33.901C31.7369 33.8546 31.8097 33.8225 31.8867 33.8067C31.9638 33.7909 32.0433 33.7919 32.12 33.8096L41.6711 36.1746L49.6592 33.8198C49.7362 33.7952 49.818 33.7897 49.8976 33.8039C49.9772 33.818 50.0521 33.8514 50.1159 33.901C50.1816 33.9488 50.2351 34.0113 50.2722 34.0836C50.3092 34.1559 50.3287 34.2359 50.3291 34.3171V47.634C50.3264 50.0047 49.3834 52.2776 47.707 53.954C46.0306 55.6304 43.7577 56.5734 41.3869 56.5761ZM32.5158 34.9871V47.634C32.5212 49.7257 33.3552 51.7301 34.8352 53.2082C36.3153 54.6864 38.3208 55.5178 40.4125 55.5205H41.4275C43.5122 55.5071 45.5073 54.671 46.9786 53.194C48.4499 51.717 49.2783 49.7187 49.2836 47.634V35.0175L41.8741 37.22C41.7845 37.2452 41.6897 37.2452 41.6001 37.22L32.5158 34.9871Z" fill="#231F20"/>
<path d="M31.9779 41.544V40.7827H32.1301L33.5613 40.4884C34.3287 40.2993 35.1156 40.2005 35.9059 40.194C37.0456 40.2333 38.1782 40.3898 39.2859 40.6609C40.445 40.9495 41.652 40.991 42.8282 40.7827C43.7011 40.6203 44.5639 40.4478 45.4368 40.3057C46.0834 40.194 46.7415 40.1633 47.3957 40.2143C48.3906 40.3547 49.3767 40.5513 50.3494 40.803C50.4177 40.8131 50.4794 40.8496 50.5211 40.9046C50.5629 40.9596 50.5814 41.0288 50.5727 41.0974V41.7571C50.575 41.8163 50.5611 41.875 50.5325 41.9269C50.5039 41.9788 50.4616 42.0219 50.4103 42.0515C50.2372 42.1642 50.1026 42.3271 50.0246 42.5184C49.97 42.65 49.9259 42.7858 49.8926 42.9244C49.7505 43.4217 49.6287 43.9394 49.4765 44.4367C49.3485 44.9 49.1056 45.3234 48.7702 45.6676C48.4348 46.0119 48.0179 46.2658 47.5581 46.4058C46.864 46.6485 46.1175 46.7011 45.3962 46.5581C44.8554 46.4865 44.3398 46.286 43.8929 45.9733C43.4459 45.6606 43.0808 45.245 42.8282 44.7615C42.5828 44.2873 42.3823 43.7912 42.2294 43.2796C42.1356 43.028 42.0166 42.7866 41.8741 42.559C41.847 42.5154 41.8115 42.4778 41.7697 42.4482C41.7279 42.4185 41.6806 42.3975 41.6305 42.3864C41.4515 42.3709 41.2716 42.3709 41.0926 42.3864C41.0098 42.383 40.9281 42.4057 40.8589 42.4512C40.7897 42.4968 40.7365 42.5628 40.7069 42.6402C40.6062 42.8594 40.5247 43.0869 40.4633 43.3202C40.304 43.9608 40.0213 44.5641 39.631 45.0965C39.228 45.7501 38.5998 46.2339 37.8649 46.4566C37.5879 46.5244 37.3063 46.5719 37.0224 46.5987C36.2152 46.6863 35.3989 46.5711 34.6473 46.2637C34.1586 46.0814 33.7588 45.7179 33.5308 45.2487C33.1917 44.5121 32.9265 43.7437 32.7391 42.9548C32.6757 42.6739 32.5391 42.4148 32.3433 42.2037C32.1558 42.0271 32.0281 41.7965 31.9779 41.544Z" fill="black"/>
<path d="M51.5065 41.5439H51.3136C51.1868 41.4899 51.0855 41.3892 51.0307 41.2627C50.9759 41.1361 50.9718 40.9934 51.0193 40.8639C51.7173 39.2274 52.0771 37.4666 52.0771 35.6874C52.0771 33.9082 51.7173 32.1474 51.0193 30.5109C50.3012 28.9161 49.1696 27.5425 47.7419 26.5323C46.3141 25.5222 44.6421 24.9123 42.8993 24.766C41.4916 24.7588 40.0901 24.9537 38.7378 25.3446C37.1456 25.6555 35.6289 26.2725 34.2718 27.1614C32.4611 28.6225 31.2538 30.7009 30.8817 32.9977C30.5137 35.3474 30.4319 37.7332 30.6381 40.1027C30.6436 40.241 30.5946 40.376 30.5016 40.4785C30.4085 40.581 30.279 40.6429 30.1407 40.6508C30.0719 40.6549 30.003 40.6452 29.9379 40.6223C29.8729 40.5994 29.8131 40.5637 29.7621 40.5174C29.711 40.471 29.6697 40.415 29.6406 40.3525C29.6115 40.29 29.5952 40.2223 29.5926 40.1534C29.3766 37.6888 29.4653 35.2071 29.8565 32.7642C30.2724 30.2292 31.6053 27.9354 33.6019 26.3189C35.0644 25.3334 36.7058 24.6438 38.4333 24.2889C39.8818 23.8739 41.3824 23.6688 42.8891 23.68C44.8294 23.8298 46.6936 24.4987 48.2865 25.6166C49.8794 26.7345 51.1423 28.2602 51.9429 30.0339C52.6939 31.7992 53.081 33.6979 53.081 35.6164C53.081 37.5348 52.6939 39.4335 51.9429 41.1989C51.9106 41.292 51.8523 41.3739 51.775 41.435C51.6977 41.4962 51.6045 41.5339 51.5065 41.5439Z" fill="#231F20"/>
<path d="M42.1786 50.1207C41.7377 50.1254 41.297 50.1016 40.8591 50.0496C40.7904 50.0435 40.7237 50.0233 40.663 49.9905C40.6023 49.9577 40.549 49.9128 40.5063 49.8587C40.4635 49.8045 40.4323 49.7422 40.4144 49.6756C40.3965 49.6089 40.3925 49.5394 40.4024 49.4711C40.4099 49.4029 40.4309 49.3369 40.4642 49.277C40.4975 49.217 40.5423 49.1642 40.5961 49.1217C40.65 49.0792 40.7117 49.0478 40.7778 49.0294C40.8438 49.011 40.9129 49.0059 40.9809 49.0143C41.7099 49.0879 42.4444 49.0879 43.1733 49.0143C43.3256 48.3952 42.6963 45.9186 41.732 43.4217C41.7074 43.355 41.6961 43.2842 41.6988 43.2132C41.7015 43.1422 41.7182 43.0724 41.7479 43.0078C41.7776 42.9433 41.8197 42.8852 41.8718 42.8369C41.924 42.7886 41.9851 42.7511 42.0518 42.7264C42.1184 42.7018 42.1893 42.6905 42.2603 42.6932C42.3313 42.6959 42.4011 42.7126 42.4656 42.7423C42.5302 42.772 42.5883 42.8141 42.6365 42.8662C42.6848 42.9184 42.7224 42.9795 42.747 43.0461C43.3662 44.66 44.777 48.5373 44.0767 49.6335C44.0131 49.7454 43.9237 49.8406 43.8161 49.9112C43.7084 49.9818 43.5855 50.0257 43.4575 50.0395C43.0337 50.0969 42.6063 50.124 42.1786 50.1207Z" fill="#231F20"/>
<path d="M38.6261 52.4958C38.5051 52.4852 38.3917 52.4324 38.3057 52.3466C38.2197 52.2608 38.1666 52.1475 38.1557 52.0265C38.1449 51.9055 38.1769 51.7846 38.2461 51.6848C38.3154 51.5851 38.4176 51.5128 38.5348 51.4808C38.6972 51.4808 42.6455 50.6993 45.1627 51.3286C45.2301 51.3452 45.2935 51.3749 45.3493 51.4161C45.4051 51.4572 45.4523 51.509 45.4881 51.5683C45.5239 51.6277 45.5477 51.6936 45.558 51.7622C45.5684 51.8307 45.5651 51.9007 45.5484 51.968C45.5125 52.1026 45.4258 52.2179 45.3065 52.2899C45.1873 52.3618 45.0448 52.3847 44.909 52.3537C42.6049 51.7752 38.819 52.4958 38.7276 52.506L38.6261 52.4958Z" fill="#231F20"/>
<path d="M43.0414 188.719L42.9399 198.372L49.6998 199.579L50.0043 197.549C51.038 198.845 52.3222 199.918 53.7801 200.706C55.9014 201.721 68.3047 206.025 67.2491 201.863C66.1935 197.702 61.0475 195.966 58.7739 193.53C58.1158 192.87 57.6117 192.073 57.2976 191.196C56.9835 190.319 56.8672 189.383 56.957 188.455" fill="white"/>
<path d="M64.9755 204.066C61.0881 204.066 54.3992 201.488 53.5872 201.102C52.3521 200.467 51.2415 199.614 50.3088 198.585L50.1565 199.6C50.1462 199.661 50.1238 199.719 50.0907 199.771C50.0576 199.824 50.0144 199.869 49.9637 199.904C49.9153 199.942 49.8595 199.968 49.8 199.982C49.7404 199.996 49.6785 199.997 49.6186 199.985L42.8891 198.778C42.7816 198.759 42.6841 198.703 42.6136 198.619C42.5431 198.536 42.5041 198.43 42.5034 198.321L42.6049 188.668C42.6076 188.546 42.6579 188.43 42.7452 188.345C42.8325 188.259 42.9497 188.211 43.0718 188.211C43.1327 188.211 43.1929 188.224 43.249 188.247C43.3051 188.271 43.3559 188.305 43.3984 188.349C43.441 188.392 43.4744 188.444 43.4968 188.5C43.5191 188.557 43.5299 188.618 43.5286 188.678L43.4372 197.935L49.3445 198.95L49.5678 197.407C49.5817 197.317 49.6218 197.232 49.6833 197.165C49.7448 197.097 49.8248 197.048 49.9135 197.026C50.0022 197.003 50.0956 197.007 50.1822 197.037C50.2687 197.067 50.3445 197.122 50.4001 197.194C51.3872 198.442 52.6163 199.478 54.0135 200.239C56.145 201.254 64.9552 204.167 66.6604 202.767C66.8127 202.645 66.9649 202.442 66.833 201.924C66.1732 199.336 63.788 197.752 61.5753 196.22C60.455 195.526 59.4135 194.713 58.4694 193.794C57.7643 193.091 57.2245 192.24 56.8892 191.302C56.5539 190.365 56.4314 189.365 56.5307 188.374C56.5636 188.265 56.6348 188.172 56.7312 188.112C56.8276 188.053 56.9425 188.03 57.0544 188.048C57.1663 188.067 57.2676 188.126 57.3394 188.214C57.4111 188.302 57.4484 188.413 57.4442 188.526C57.3654 189.379 57.4756 190.238 57.7668 191.044C58.058 191.849 58.5232 192.58 59.1291 193.185C60.0286 194.046 61.015 194.811 62.0726 195.469C64.3665 197.022 66.9649 198.788 67.7059 201.711C67.8198 202.023 67.8351 202.363 67.7498 202.684C67.6645 203.006 67.4826 203.293 67.2288 203.508C66.5602 203.938 65.7677 204.134 64.9755 204.066Z" fill="#231F20"/>
<path d="M36.383 188.719L36.4845 198.372L29.6941 199.529L29.3896 197.499C28.3638 198.799 27.0866 199.88 25.6341 200.676C23.5128 201.691 11.0993 205.994 12.1651 201.833C13.2308 197.671 18.3667 195.936 20.6403 193.5C21.2984 192.84 21.8025 192.043 22.1166 191.165C22.4307 190.288 22.547 189.352 22.4572 188.425" fill="white"/>
<path d="M14.4691 204.066C13.6802 204.133 12.8912 203.937 12.226 203.508C11.9722 203.293 11.7903 203.006 11.705 202.684C11.6197 202.363 11.635 202.023 11.7489 201.711C12.4899 198.788 15.0883 197.022 17.3822 195.469C18.4398 194.811 19.4262 194.046 20.3257 193.185C20.9324 192.584 21.399 191.857 21.692 191.055C21.985 190.253 22.0973 189.397 22.0207 188.546C22.0031 188.425 22.0337 188.302 22.1058 188.204C22.1779 188.105 22.2858 188.039 22.4064 188.019C22.4665 188.007 22.5283 188.007 22.5882 188.02C22.648 188.033 22.7047 188.057 22.7549 188.092C22.8051 188.127 22.8477 188.172 22.8803 188.224C22.9128 188.276 22.9346 188.334 22.9444 188.394C23.0323 189.383 22.9024 190.378 22.564 191.311C22.2255 192.244 21.6867 193.092 20.9854 193.794C20.0412 194.713 18.9998 195.526 17.8795 196.22C15.6161 197.752 13.2816 199.336 12.6218 201.924C12.4899 202.442 12.6218 202.645 12.7944 202.767C14.4996 204.167 23.3098 201.254 25.4413 200.239C26.8385 199.478 28.0675 198.442 29.0547 197.194C29.1111 197.122 29.1874 197.069 29.2739 197.04C29.3605 197.011 29.4537 197.008 29.5419 197.032C29.6283 197.055 29.7062 197.103 29.7657 197.169C29.8253 197.236 29.8639 197.319 29.8768 197.407L30.1103 198.95L36.0176 197.935L35.9161 188.678C35.9161 188.555 35.9653 188.436 36.0528 188.348C36.1404 188.261 36.2591 188.211 36.383 188.211C36.5051 188.211 36.6223 188.259 36.7096 188.345C36.7969 188.43 36.8472 188.546 36.8499 188.668L36.9514 198.321C36.9507 198.43 36.9117 198.536 36.8412 198.619C36.7707 198.703 36.6732 198.759 36.5657 198.778L29.8058 199.985C29.7442 199.998 29.6807 199.997 29.6195 199.983C29.5583 199.969 29.5007 199.942 29.4505 199.904C29.4013 199.868 29.3597 199.823 29.3284 199.77C29.297 199.718 29.2764 199.66 29.2678 199.6L29.1156 198.585C28.1828 199.614 27.0723 200.467 25.8371 201.102C25.0251 201.488 18.3261 204.066 14.4691 204.066Z" fill="#231F20"/>
<path d="M57.3732 122.937H45.6195C45.5093 122.938 45.4016 122.904 45.3134 122.837C45.2252 122.771 45.1615 122.678 45.1323 122.571L42.0162 111.234L39.2757 121.851C39.2467 121.961 39.1823 122.058 39.0924 122.128C39.0025 122.198 38.8921 122.236 38.7784 122.236L22.6906 121.83C22.6244 121.829 22.5591 121.815 22.4986 121.788C22.4381 121.761 22.3836 121.722 22.3382 121.674C22.2928 121.626 22.2575 121.569 22.2344 121.507C22.2112 121.445 22.2007 121.379 22.2034 121.313C22.2061 121.18 22.2607 121.053 22.3556 120.96C22.4505 120.867 22.5781 120.815 22.7109 120.815L38.3927 121.211L41.5087 109.133C41.536 109.025 41.5989 108.929 41.6873 108.861C41.7757 108.793 41.8844 108.756 41.9959 108.757C42.1075 108.756 42.2162 108.793 42.3045 108.861C42.3929 108.929 42.4558 109.025 42.4831 109.133L46.0052 121.922H57.3732C57.5078 121.922 57.6368 121.975 57.732 122.07C57.8272 122.166 57.8807 122.295 57.8807 122.429C57.8807 122.496 57.8675 122.562 57.842 122.624C57.8165 122.685 57.7791 122.741 57.732 122.788C57.6849 122.835 57.629 122.873 57.5674 122.898C57.5058 122.924 57.4398 122.937 57.3732 122.937Z" fill="white"/>
<path d="M233.902 145.693C234.013 144.082 233.66 142.472 232.887 141.055C232.142 140.114 231.448 139.135 230.806 138.121C229.923 136.233 230.542 134.01 230.339 131.94C230.157 130.205 229.392 128.584 228.167 127.342C227.091 126.246 225.691 125.495 224.655 124.358C222.96 122.48 222.473 119.851 221.509 117.517C220.139 114.217 217.772 111.427 214.739 109.539C216.586 113.264 212.374 117.984 214.282 121.719C214.881 122.886 216.038 123.749 216.485 124.977C217.55 128.022 213.988 131.209 215.124 134.173C215.693 135.655 217.286 136.517 218.027 137.918C219.042 139.816 218.241 142.11 218.322 144.252C218.433 147.205 220.23 149.844 222.382 151.885C223.711 153.164 225.183 154.26 226.624 155.407C228.34 156.787 229.06 158.228 230.573 156.026C232.666 152.98 233.823 149.388 233.902 145.693Z" fill="#231F20"/>
<path d="M235.82 147.388C235.272 145.104 234.876 142.628 235.82 140.476C236.835 138.04 239.495 136.315 239.799 133.676C240.002 131.95 239.119 130.204 239.464 128.499C239.809 126.794 241.21 125.627 242.357 124.368C244.999 121.462 246.571 117.742 246.813 113.822C248.584 115.925 250.015 118.291 251.055 120.836C251.565 122.116 251.775 123.497 251.667 124.871C251.56 126.246 251.139 127.577 250.436 128.763C249.993 129.292 249.63 129.884 249.36 130.519C248.843 132.194 250.284 133.767 251.025 135.36C251.467 136.272 251.651 137.287 251.558 138.296C251.465 139.305 251.098 140.269 250.497 141.085C248.995 142.963 246.082 143.694 245.341 145.987C245.159 146.841 245.074 147.713 245.087 148.586C244.928 150.103 244.319 151.537 243.339 152.705C242.359 153.874 241.052 154.722 239.586 155.143C237.81 155.569 237.84 154.869 237.556 153.367C237.079 151.347 236.308 149.398 235.82 147.388Z" fill="#231F20"/>
<path d="M230.146 130.965C228.878 126.581 228.37 122.003 227.03 117.628C225.888 114.22 224.501 110.899 222.879 107.691L228.319 109.985C230.065 110.716 231.953 111.589 232.775 113.294C234.206 116.258 231.639 120.064 233.141 122.998C233.794 123.95 234.513 124.856 235.293 125.708C236.896 127.951 236.653 131.047 235.77 133.665C235.394 134.782 233.74 140.608 232.268 138.994C231.679 138.344 231.628 135.949 231.385 135.046C230.999 133.675 230.532 132.336 230.146 130.965Z" fill="#231F20"/>
<path d="M233.08 189.237C231.994 182.071 228.594 156.807 228.563 156.554L229.578 156.411C229.578 156.665 233.009 181.929 234.095 189.084L233.08 189.237Z" fill="#231F20"/>
<path d="M234.43 196.007H233.415C233.476 187.491 237.028 154.94 239.078 152.707L239.83 153.387C238.266 155.082 234.501 186.547 234.43 196.007Z" fill="#231F20"/>
<path d="M236.277 194.383L235.262 194.332C236.074 175.991 232.217 137.492 232.136 137.066L233.151 136.964C233.191 137.35 237.089 175.96 236.277 194.383Z" fill="#231F20"/>
<path d="M223.793 171.951H244.042L242.631 192.454C242.513 194.164 241.75 195.765 240.498 196.935C239.245 198.105 237.595 198.756 235.881 198.757H231.963C230.249 198.756 228.6 198.105 227.347 196.935C226.094 195.765 225.332 194.164 225.214 192.454L223.793 171.951Z" fill="white"/>
<path d="M235.881 199.285H231.963C230.118 199.28 228.342 198.577 226.992 197.318C225.643 196.058 224.819 194.336 224.686 192.495L223.275 171.992C223.27 171.92 223.28 171.847 223.305 171.779C223.329 171.711 223.367 171.649 223.417 171.596C223.465 171.545 223.524 171.504 223.588 171.476C223.653 171.448 223.722 171.434 223.793 171.433H244.042C244.114 171.432 244.186 171.445 244.253 171.473C244.32 171.501 244.38 171.543 244.43 171.595C244.479 171.648 244.518 171.71 244.542 171.779C244.566 171.847 244.575 171.92 244.57 171.992L243.149 192.495C243.018 194.335 242.196 196.058 240.848 197.317C239.5 198.576 237.726 199.279 235.881 199.285ZM224.361 172.479L225.731 192.424C225.846 193.999 226.553 195.473 227.708 196.549C228.864 197.626 230.384 198.226 231.963 198.229H235.881C237.46 198.226 238.978 197.625 240.132 196.548C241.286 195.472 241.99 193.998 242.103 192.424L243.484 172.479H224.361Z" fill="#231F20"/>
</svg>
